<svg width="173" height="24" viewBox="0 0 173 24" fill="none" xmlns="http://www.w3.org/2000/svg">
<path d="M0 18.548H3.53758V11.444H10.7126V8.0479H3.53758V4.17487H11.7273V0.77877H0V18.548Z" fill="white"/>
<path d="M25.3674 5.40464H21.9479V13.0265C21.9479 14.6868 20.9707 15.7184 19.3975 15.7184C17.839 15.7184 16.871 14.6868 16.871 13.0265V5.40464H13.4513V13.0265C13.4513 16.6217 15.7296 18.8549 19.3975 18.8549C23.1357 18.8549 25.3674 16.6761 25.3674 13.0265V5.40464Z" fill="white"/>
<path d="M30.2765 0C29.073 0 28.13 0.922165 28.13 2.09912C28.13 3.27639 29.073 4.19855 30.2765 4.19855C31.4733 4.19855 32.3756 3.29591 32.3756 2.09912C32.3756 0.902319 31.4733 0 30.2765 0Z" fill="white"/>
<path d="M28.5548 18.5729C28.5548 19.6609 28.2107 20.9579 26.5709 20.9579C26.0063 20.9579 25.4906 20.8014 24.9234 20.6122L24.7541 20.5559L24.095 23.2977L24.1933 23.3604C24.7912 23.7429 25.9458 24 27.0667 24C30.1395 24 31.9742 22.0065 31.9742 18.6674V5.40464H28.5548V18.5729Z" fill="white"/>
<path d="M37.0018 0C35.7916 0 34.879 0.902319 34.879 2.09912C34.879 3.29591 35.7916 4.19855 37.0018 4.19855C38.1922 4.19855 39.1246 3.27639 39.1246 2.09912C39.1246 0.922165 38.1922 0 37.0018 0Z" fill="white"/>
<path d="M38.6999 5.40464H35.2804V18.548H38.6999V5.40464Z" fill="white"/>
<path d="M50.5587 15.0808C49.8244 15.5158 49.1609 15.7184 48.4711 15.7184C47.2951 15.7184 46.7705 15.0555 46.7705 13.5694V8.32861H51.0657V5.40463H46.7705V0.873191H43.3981V5.40463H41.2266V8.32861H43.351V13.6875C43.351 17.0679 44.9255 18.8549 47.9045 18.8549C49.2937 18.8549 50.7139 18.4468 51.703 17.7634L51.8109 17.6892L50.7229 14.9832L50.5587 15.0808Z" fill="white"/>
<path d="M60.7224 11.2523C59.9686 10.8662 59.1075 10.5404 58.3476 10.2526C58.0826 10.1524 57.8349 10.0587 57.613 9.97C56.9668 9.72994 56.6109 9.34007 56.6109 8.87275C56.6109 8.25082 57.171 7.83311 58.0045 7.83311C58.9776 7.83311 60.0095 8.30812 60.7652 9.10385L60.893 9.23829L62.7037 7.02842L62.6121 6.92407C61.5152 5.6703 59.9122 4.97988 58.0989 4.97988C55.2649 4.97988 53.2855 6.60975 53.2855 8.94349C53.2855 10.4501 54.0598 11.6274 55.5239 12.3473C55.9566 12.5636 56.624 12.8239 57.2693 13.0755C57.8377 13.2973 58.3745 13.5066 58.71 13.6689C59.3165 13.972 59.587 14.3052 59.587 14.7495C59.587 15.423 58.846 15.9309 57.863 15.9309C56.6345 15.9309 55.3641 15.2594 54.5482 14.1785L54.4301 14.0223L52.4597 16.1521L52.5371 16.2606C53.7221 17.9241 55.6544 18.8783 57.8393 18.8783C60.868 18.8783 62.9831 17.1415 62.9831 14.6551C62.9831 13.1561 62.2655 12.0752 60.7224 11.2523Z" fill="white"/>
<path d="M72.8737 13.0265C72.8737 14.6868 71.8965 15.7184 70.3233 15.7184C68.7648 15.7184 67.7969 14.6868 67.7969 13.0265V5.40464H64.3771V13.0265C64.3771 16.6217 66.6554 18.8549 70.3233 18.8549C74.0616 18.8549 76.2932 16.6761 76.2932 13.0265V5.40464H72.8737V13.0265Z" fill="white"/>
<path d="M87.3435 0.77877L80.4668 18.548H84.2428L85.6826 14.5831H91.6365L93.0759 18.548H96.8513L90.0466 0.77877H87.3435ZM90.5978 11.3521H86.7459L88.6821 6.02656L90.5978 11.3521Z" fill="#1DD7FA"/>
<path d="M105.605 13.0265C105.605 14.6868 104.628 15.7184 103.055 15.7184C101.496 15.7184 100.528 14.6868 100.528 13.0265V5.40464H97.1086V13.0265C97.1086 16.6217 99.387 18.8549 103.055 18.8549C106.793 18.8549 109.025 16.6761 109.025 13.0265V5.40464H105.605V13.0265Z" fill="#1DD7FA"/>
<path d="M119.821 15.0808C119.087 15.5158 118.423 15.7184 117.734 15.7184C116.558 15.7184 116.033 15.0555 116.033 13.5694V8.32861H120.328V5.40463H116.033V0.873191H112.661V5.40463H110.489V8.32861H112.614V13.6875C112.614 17.0679 114.188 18.8549 117.167 18.8549C118.556 18.8549 119.976 18.4468 120.966 17.7634L121.073 17.6892L119.985 14.9832L119.821 15.0808Z" fill="#1DD7FA"/>
<path d="M128.636 5.07431C124.641 5.07431 121.628 8.03637 121.628 11.9645C121.628 15.906 124.641 18.8783 128.636 18.8783C132.631 18.8783 135.644 15.906 135.644 11.9645C135.644 8.03637 132.631 5.07431 128.636 5.07431ZM128.636 15.6947C126.624 15.6947 125.048 14.0562 125.048 11.9645C125.048 9.88614 126.624 8.25787 128.636 8.25787C130.648 8.25787 132.225 9.88614 132.225 11.9645C132.225 14.0562 130.648 15.6947 128.636 15.6947Z" fill="#1DD7FA"/>
<path d="M146.878 10.8253L140.028 0.849829L139.979 0.77877H137.699V18.548H141.213V8.57188L146.25 15.8573H147.484L152.521 8.57188V18.548H156.058V0.77877H153.755L146.878 10.8253Z" fill="white"/>
<path d="M163.302 15.1285V0.77877H159.74V18.548H172.27V15.1285H163.302Z" fill="white"/>
</svg>
