<svg width="176" height="32" viewBox="0 0 176 32" fill="none" xmlns="http://www.w3.org/2000/svg">
<g clip-path="url(#clip0_406_469)">
<path d="M140.92 6.53186H142.932L149.857 17.7382L156.759 6.53186H158.795V25.7467H155.613V14.358L150.372 22.7825H149.319L144.078 14.358V25.7467H140.92V6.53186Z" fill="white"/>
<path d="M38.0456 22.3926L40.1778 19.9486C41.3998 21.7943 43.2455 22.7305 45.1699 22.7305C46.9375 22.7305 48.1074 21.7689 48.1074 20.4948C48.1074 19.4545 47.3015 18.8047 46.3138 18.3106C45.0658 17.7123 43.4798 17.2442 42.1537 16.4642C40.4636 15.4766 39.1374 14.0463 39.1374 11.7325C39.1374 8.63806 41.6856 6.22009 45.5078 6.22009C47.7175 6.22009 49.9538 7.00004 51.6699 8.87244L49.694 11.42C48.5755 10.1459 46.86 9.54822 45.5599 9.54822C43.9994 9.54822 42.9597 10.3802 42.9597 11.5762C42.9597 12.5905 43.7396 13.1882 44.5456 13.6042C45.5599 14.1244 47.5619 14.9043 48.862 15.5801C50.7077 16.5163 52.0339 17.9206 52.0339 20.2865C52.0339 23.6667 49.2259 26.0586 45.1439 26.0586C42.2832 26.0586 39.6055 24.8106 38.0456 22.3926Z" fill="white"/>
<path d="M68.4446 11.6283V25.7468H65.2207V24.0046C64.1543 25.2006 62.6465 26.0847 60.6185 26.0847C56.5364 26.0847 53.6243 22.8086 53.6243 18.6224C53.6243 14.3842 56.5885 11.2904 60.6185 11.2904C62.6465 11.2904 64.1282 12.2006 65.2207 13.4226V11.6283H68.4446ZM65.2988 18.6745C65.2988 16.3347 63.6087 14.3842 61.1387 14.3842C58.6426 14.3842 57.0045 16.3347 57.0045 18.6745C57.0045 21.0404 58.6686 22.9909 61.1387 22.9909C63.6087 22.9909 65.2988 21.0404 65.2988 18.6745Z" fill="white"/>
<path d="M86.4993 18.6745C86.4993 22.7826 83.5612 26.0847 79.5052 26.0847C77.5033 26.0847 76.0208 25.2006 74.9551 23.9786V30.2116H71.5488V11.6283H74.929V13.5C75.9948 12.2266 77.5033 11.2904 79.5313 11.2904C83.5872 11.2904 86.4993 14.5925 86.4993 18.6745ZM83.0931 18.7006C83.0931 16.3347 81.4551 14.4102 78.985 14.4102C76.4889 14.4102 74.877 16.3607 74.877 18.7006C74.877 21.0664 76.4889 22.9909 78.985 22.9909C81.4551 22.9909 83.0931 21.0664 83.0931 18.7006Z" fill="white"/>
<path d="M88.1003 7.80599C88.1003 6.58398 89.0365 5.67383 90.2585 5.67383C91.4544 5.67383 92.416 6.58398 92.416 7.80599C92.416 9.02799 91.4544 9.93815 90.2585 9.93815C89.0365 9.93815 88.1003 9.02799 88.1003 7.80599Z" fill="#1DD7FA"/>
<path d="M91.9485 11.6283H88.5423V25.7468H91.9485V11.6283Z" fill="white"/>
<path d="M108.463 19.8965H97.6986C98.1146 21.7168 99.4408 23.1465 102.015 23.1465C103.601 23.1465 105.447 22.5489 106.669 21.6908L108.022 24.1088C106.695 25.097 104.459 26.0586 101.885 26.0586C96.5808 26.0586 94.2409 22.4187 94.2409 18.6745C94.2409 14.4623 97.1791 11.2904 101.573 11.2904C105.551 11.2904 108.567 13.9161 108.567 18.3887C108.567 18.9603 108.515 19.4284 108.463 19.8965ZM97.6986 17.3223H105.239C104.953 15.3464 103.497 14.1244 101.573 14.1244C99.597 14.1244 98.1407 15.3724 97.6986 17.3223Z" fill="white"/>
<path d="M110.526 11.6282H113.854V13.6041C114.608 12.2265 116.22 11.2643 118.3 11.2643C121.16 11.2643 123.839 13.136 123.839 17.1406V25.7467H120.432V18.0761C120.432 15.6582 119.158 14.358 117.338 14.358C115.31 14.358 113.906 15.9186 113.906 18.1282V25.7467H110.526V11.6282Z" fill="white"/>
<path d="M136.552 24.9148C135.46 25.6687 133.9 26.0847 132.47 26.0847C129.271 26.0847 127.633 24.1608 127.633 20.5723V14.4883H125.294V11.6283H127.686V6.63611H131.04V11.6283H135.772V14.4883H131.04V20.4427C131.04 22.1068 131.638 22.9909 133.094 22.9909C134.004 22.9909 134.784 22.6784 135.486 22.2624L136.552 24.9148Z" fill="white"/>
<path d="M162.35 6.53186H165.912V22.3405H175.792V25.7467H162.35V6.53186Z" fill="white"/>
<path d="M24.8035 0.00352263C24.8047 0.00236263 24.8058 0.00116263 24.807 0L17.8633 9.98458e-07C15.9949 3.57108 15.532 7.68516 16.4746 11.5254C17.6351 11.8102 18.8211 11.9625 20.0093 11.9906C19.907 7.66444 21.5019 3.30508 24.8035 0.00352263Z" fill="#1DD7FA"/>
<path d="M12.4023 0L8.00934 6.31597e-07C8.0863 3.16876 9.07578 6.3172 10.9789 9.02108C11.7875 9.59064 12.6343 10.082 13.5121 10.4883C11.9871 7.191 11.6199 3.49296 12.4023 0Z" fill="#A272F7"/>
<path d="M18.9789 17.0211C19.5157 17.7844 20.1211 18.5145 20.8035 19.1969C23.9039 22.2973 27.9371 23.8922 32 23.9907V19.5977C27.5777 20.5883 22.8274 19.7297 18.9789 17.0211Z" fill="white"/>
<path d="M31.9965 7.19691C26.2742 12.9188 17.3777 13.5239 10.9789 9.02112C11.5157 9.7844 12.1211 10.5145 12.8035 11.1969C17.9996 16.393 25.8153 17.3727 32 14.1368L32 7.19299C31.9989 7.19455 31.9977 7.19575 31.9965 7.19691Z" fill="white"/>
<path d="M7.19651 31.9965C7.19535 31.9977 7.19419 31.9989 7.19299 32H14.1368C16.0051 28.429 16.468 24.3149 15.5254 20.4746C14.3649 20.1899 13.179 20.0375 11.9907 20.0094C12.093 24.3356 10.4981 28.695 7.19651 31.9965Z" fill="#1DD7FA"/>
<path d="M19.5976 32L23.9906 32C23.9137 28.8312 22.9242 25.6828 21.0211 22.9789C20.2125 22.4094 19.3656 21.918 18.4879 21.5117C20.0129 24.809 20.3801 28.507 19.5976 32Z" fill="#A272F7"/>
<path d="M13.0211 14.979C12.4844 14.2157 11.8789 13.4856 11.1965 12.8032C8.09608 9.70276 4.06288 8.10784 0 8.0094L6.31597e-07 12.4024C4.42228 11.4118 9.17264 12.2704 13.0211 14.979Z" fill="white"/>
<path d="M0.003521 24.8031C5.7258 19.0812 14.6223 18.4761 21.0211 22.9789C20.4844 22.2156 19.8789 21.4855 19.1965 20.8031C14.0004 15.607 6.18476 14.6273 0 17.8633L9.98459e-07 24.807C0.001161 24.8055 0.002361 24.8043 0.003521 24.8031Z" fill="white"/>
</g>
<defs>
<clipPath id="clip0_406_469">
<rect width="175.792" height="32" fill="white"/>
</clipPath>
</defs>
</svg>
